<?xml version="1.0" encoding="UTF-8"?>
<svg id="layer" xmlns="http://www.w3.org/2000/svg" viewBox="0 0 613.31 271.97">
  <defs>
    <style>
      .cls-1 {
        fill: #d5b527;
      }

      .cls-1, .cls-2 {
        stroke-width: 0px;
      }

      .cls-2 {
        fill: #b11116;
      }
    </style>
  </defs>
  <path class="cls-1" d="M91.88,5.46c1.8-.3,3.7-.1,5.4.7,2.7,1.2,4.9,3.6,5.4,6.5.4,2.4-.3,4.9-1.9,6.8-.4.5-1,.9-1.4,1.4,8.3.8,16.8,2.7,23.8,7.4.7.4,1.3,1,2.1,1.4,6.8.8,13.7,2.1,19.6,5.7,2.7,1.7,5.1,3.9,6.7,6.6,1.5,2.6,2.3,5.6,2.1,8.6.1,2.3-.5,4.6-1.5,6.6-1.4,2.9-3.7,5.4-6.3,7.4-2.5,1.8-5.3,3.2-8.2,4.2-.8.3-1.5.4-2.3.8,2.8.3,5.7.7,8.3,1.7.2.6.3,1.2.4,1.7.6,3.5,1.3,7,2,10.5-14-1.8-28.1-3.1-42.3-3.3-3.3-.2-6.6-.1-9.9-.1-2.4,0-4.9-.1-7.3.1-5.2,0-10.4.4-15.7.6-4,.3-7.9.6-11.9,1-5.8.6-11.7,1.2-17.5,2.1h-.8c.9-4.2,1.6-8.4,2.5-12.5,1-.5,2.1-.6,3.1-.9,1.9-.4,3.9-.6,5.8-.9-4.1-.9-8-2.7-11.3-5.3s-6.1-6.2-7.1-10.3c-.5-1.6-.3-3.3-.3-4.9.2-3.8,1.9-7.5,4.6-10.2,3.4-3.6,8.1-5.7,12.8-7.1,3.6-1,7.3-1.7,11.1-2.1.4-.2.6-.4,1-.7,4.7-3.4,10.3-5.5,16-6.8,3-.6,5.9-1.1,9-1.4-1.5-1.2-2.7-2.8-3.1-4.7-.6-2-.3-4.3.8-6.1,1.2-2.3,3.6-4,6.3-4.5ZM73.68,33.56c-3,2.2-5.5,5-6.9,8.4-.7,1.6-1,3.4-1.1,5.2,0,4.1,1.8,8,4.6,11,2.7,3,6.3,5,10.1,6.4,2.8,1,5.8,1.6,8.8,1.8-2.7-4-3.6-8.9-4.1-13.6-.3-3.4-.4-6.8-.1-10.2.4-5,1.3-10,3.7-14.5-5.3.6-10.6,2.3-15,5.5ZM98.28,28.16c2,3.6,2.9,7.8,3.5,11.9.1,1.2.3,2.3.3,3.5,0,2.8.1,5.6-.1,8.4-.3,2.3-.5,4.6-1.1,6.8-.7,2.7-1.6,5.4-3.1,7.7,2.7-.1,5.4-.7,8-1.5,3.8-1.2,7.3-3.2,10.2-5.9,2.3-2.2,4-4.9,4.9-7.9.6-2.3.7-4.8.1-7.2-.9-3.7-3.2-6.8-6-9.3-4.8-3.9-10.7-5.9-16.7-6.5ZM50.68,38.06c-3,1.4-5.6,3.6-7,6.6-1.3,2.7-1.6,5.9-1,8.8.6,3,2.3,5.6,4.7,7.5,3.1,2.5,7,3.8,10.9,4.4,3.4.5,6.8.6,10.2,0-2.2-.9-4.3-2-6.2-3.3-3.4-2.3-6.4-5.5-7.8-9.4-2-5.6-.6-12,3-16.7-2.3.4-4.6,1.1-6.8,2.1ZM129.48,36.06c2.5,3.2,4,7.3,3.9,11.4.1,3.3-1.1,6.5-2.9,9.2-1,1.4-2.2,2.6-3.5,3.8-2.5,2-5.4,3.6-8.4,4.9,1,.3,2,.2,3,.3,2.2.2,4.5,0,6.7-.3,3.3-.5,6.7-1.4,9.5-3.2,2.8-1.7,5.1-4.3,6.1-7.5.8-2.5.9-5.2.2-7.8-.7-2.9-2.5-5.4-4.9-7.2-2.8-1.9-6.2-3.1-9.7-3.6Z"/>
  <path class="cls-1" d="M94.18,89.26h3.3c3.6.1,7.3,0,10.9.2,7.9.1,15.8.7,23.7,1.3,11.2.9,22.4,2.2,33.5,4,3.7,19.7,7,39.4,10.4,59.1,1.9,11.2,3.8,22.4,5.7,33.7.4,2.3,1,4.6.9,6.9,0,1.2,0,2.4-.1,3.6-.5,3.4-1.6,6.7-3.5,9.5-2.1,3-4.8,5.6-7.7,7.8-5.3,3.9-10.7,7.6-16.1,11.3-17.5,12.1-35.2,24.1-52.8,36.1-2.4,1.6-4.8,3.3-7.2,4.9-.5.4-1.1-.2-1.5-.4-12.5-8.2-25-16.5-37.4-24.8-11.7-7.9-23.4-15.7-35-23.7-2.6-1.9-5.3-3.6-7.6-5.8-2.1-1.9-4-4-5.4-6.5-1.9-3.4-2.9-7.3-2.8-11.2-.1-2.8.6-5.6,1.1-8.4,5.6-30.5,11.2-61,16.9-91.4.7-.2,1.3-.3,2-.4,3.8-.7,7.6-1.2,11.4-1.8h.1c0,.2-.1.5-.1.6-3,16-5.7,32-8.5,48.1-3,17.1-5.8,34.2-8.8,51.3-.5,3,.1,6.2,2,8.6,2.2,2.9,5.3,5,8.3,7.1,3.4,2.4,6.9,4.7,10.4,7,11.9,7.9,23.8,15.7,35.7,23.5,6,3.9,11.9,7.9,17.9,11.7.1-.3.1-.6.1-1V97.76c.2-2.8.3-5.6.2-8.5h0ZM133.88,112.26c-.7.5-.6,1.5,0,2.1-1.2.2-2.5.4-3.6,1.1-.2.1-.5.3-.8.4-1,.1-2.1.4-2.9,1-.7.5-1.3,1.3-1.2,2.2,0,1.1.8,2,1.7,2.5.6.4,1.3.4,1.9.7,0,.4,0,.8.1,1.1,1.1,0,2.1-.3,3.2-.4,2.8-.2,5.5-.1,8.2.5.1-.5-.1-1.4.6-1.4,1.2-.2,2.5-1,2.9-2.2.4-1,0-2.3-.9-2.9s-2-.9-3-1.1c-.4,0-.6-.2-.9-.4-1-.6-2.2-.9-3.4-1,.3-.4.6-.9.4-1.4-.4-1-1.6-1.5-2.3-.8ZM145.38,123.86c2.3,2.1,3.4,5.3,3.4,8.3.3,1.7-.1,3.4-.1,5.1-.3,2.6-.7,5.1-1.2,7.7-.4,2.4-.9,4.8-1,7.3.1,3.4,1.5,6.6,3.2,9.5,1.6,2.8,3.6,5.4,5.1,8.2.5,1,1.2,2.2.9,3.4-.3.7-.8,1.5-1.7,1.4-1.1.1-1.9-.8-2.6-1.5-1.5-1.8-2.7-3.8-3.7-5.9-1.3-2.9-3.7-5.1-5.9-7.4-1.3-1.3-2.6-2.6-3.9-3.8-.1-.1-.3-.3-.2-.5,2.4-2,3.8-4.9,4.3-7.9.1-.4,0-.8.3-1.1.3.3.5.8,1,.6.1-1,0-2.1,0-3.2,0,1.1.1,2.2,0,3.3-.1,0-.3.1-.4.1.1.1.2.2.3.3.4,0,.2-.5.2-.7-.1-1.9.2-3.8.2-5.7.3-1.6-.1-3.1-.3-4.6h1.6c-.2-3.3-.7-6.7-2.7-9.4-1.4-1.9-3.6-3-5.9-3.2-3.1-.4-6.2.3-9.2,1.1-.5.1-.5.6-.6.9.8.2,1.6-.1,2.3.3-.6.2-1.2.4-1.7.6-.2.1-.3.4-.3.6,0,1.5.4,3.1,1.4,4.3.6-.6.7-1.6,1.6-2,.4-.3.8.2,1.1.5,1,1.1,1.1,2.9.8,4.3-.1.8-1.1.8-1.7.6-.5-.2-.8-.6-1-1.1-.8,2.1-.4,4.8,1.3,6.4.1-.7.1-1.5.6-2,.4-.6,1.3-.8,2-.8,0,1.4-.6,3-1.9,3.7-1.3.7-2.9.7-4.3,1.1-1.9.5-3.5,1.7-4.8,3.1-1.9,2.1-3.3,4.6-5,6.9-1.2,1.5-2.6,2.9-4.5,3.5.1.6.4,1.2.7,1.7.8,1.3,2,2.3,3.4,3,0,.6-.4,1-.7,1.4-1.1,1.6-2.3,3.2-3.7,4.4-.4.3-.8.6-1.3.6-.5-.6-.9-1.5-1.7-1.7-1.1-.1-2.1.4-3.1.6-.2.3-.3.6-.4,1,.4.1.8.2,1.2.4v1.7c.9.2,1.8.3,2.6.5v.5c-.6-.1-1.2-.2-1.8-.4-.4.1-.9.1-1.1.5-.7,1-1.4,2.2-1.3,3.5.3-.1.5-.3.8-.5.5,0,.6.6.7,1,.2.1.5.4.7.1.7-.6,1.3-1.3,2-1.9.3-.1.4.2.4.4-.6.7-1.2,1.2-1.8,1.9-.1.1-.3.3-.2.5,0,1.2-.4,2.5,0,3.7.5-.3.8-.9,1.3-1.1.4.1.8.5,1.3.5,1.4-.4,1.9-1.8,2.6-2.9.6.4,1.4.6,2.1.7.1.4.1.8.2,1.1h.2c.6-.7,1.1-1.6,1.1-2.5,0-1.2-.2-2.3,0-3.5.2-1,.8-1.8,1.5-2.5.4.2.8.4,1.2.5.9.2,1.8.1,2.7-.3.6-.2,1.1-.8,1.3-1.4-.9-.3-1.9-1.2-1.7-2.3.2-.7.7-1.3,1.5-1.5,1.2-.3,2.5-.1,3.6.4,3.5,1.5,5.7,4.7,8.3,7.3.2,1.3-.1,2.7-.1,4-.1,2.6-.2,5.3.6,7.8.5,1.8,1.8,3.3,2.1,5.2.2.9,0,1.8,0,2.6.6-.2,1.2-.3,1.6-.7.4-.4.6-.8.9-1.3.5,0,1.1,0,1.6.1-.1.3-.2.5-.3.7-1,1.8-2,3.7-3.3,5.3-.7.8-1.4,1.7-2.4,2.1-.8.4-1.9.5-2.7,0-1-.5-1.9-1.5-3.1-1.5-.7,0-1.1.6-1.5,1s-1,.3-1.6.5c-.4.2-.8.8-.6,1.3.4,0,.9,0,1.3.2.1.5.1.9.3,1.4.4-.1.5-.5.8-.8.4-.4.7-1,1.3-1.2-.1.2-.2.4-.4.6-.8.8-1.3,1.9-1.9,2.8-.4.6-.2,1.4-.2,2.1.1.3,0,.7.3.8.2-.3.4-.7.6-1,.8-.3.8.7,1.4.9.5-1.2.5-2.6.9-3.9.1,0,.3-.1.4-.2,0,.2,0,.5-.1.7-.6,1.8-.8,3.7-.3,5.5,0,.3.2.4.4.6.2-.5.3-1.1.8-1.3.4-.3.9-.2,1.3-.2,0-.4.3-.9,0-1.2h.2v-1.7c.1-.4.4-.8.6-1.1,0,.1,0,.3-.1.4-.6,1.8-.4,3.8.1,5.6.2.2.5.3.7.5.2-.6.3-1.1.4-1.7.9-.2,1.9-.3,2.9-.5.4,0,.6-.3.8-.6.9-1.2,1.1-2.7,1.7-4,.3-.7.8-1.5,1.5-1.8.7-.2,1.1.4,1.5.8.4-1,.4-2.1.6-3.2.2-1.9,1.4-3.4,2.4-5,1-1.5,1.8-3.2,2-5,.1-1.4.1-2.8-.4-4.1-.5.7-.9,1.5-1.4,2.2-1.6.1-2.7-1.5-3-2.9-.4-2.9-.1-6,1.7-8.4.4-.5.8-1,1.5-.9,1.1,3,4.1,5.2,7.2,5.5,1.8.2,3.8-.6,4.9-2.1.6-.9,1.1-1.9,1.1-3,.3-1.1-.1-2.3-.6-3.3-.7-1.4-1.6-2.7-2.4-4.1.5-2.4,1.6-4.5,2.9-6.6-1.9.7-3.3,2.2-4.3,3.9.1-1.1.5-2.1.9-3,.5-1.4,1.3-2.6,2-3.9-1.8.5-3,2-4.2,3.4.6-2.4,1.6-4.8,3-6.9-.2,0-.5.1-.7.2-1.8.9-3.2,2.5-4.1,4.3-1.3-3.4-.8-7.2-.4-10.7.6-5,1.5-9.9,2.8-14.7.6-2.1,1.7-4.2,3.6-5.5-3-.5-5.7,2.5-5.4,5.4h-.1c0-1-.3-2-.7-3-1.5-2.5-4.1-4.6-6.9-5.1ZM122.78,132.86c-.3.9-.4,2,.3,2.8.6.7,1.7.6,2.5.3,1.4-.5,2.3-1.7,3.5-2.5.6-.4,1.3-.6,2-.7-.7-.3-1.5-.4-2.2-.1-1.2.5-2.4,1-3.6,1.2-.5.1-1.2.1-1.5-.4-.3-.8,0-1.6.3-2.3-.7.4-1.1,1.1-1.3,1.7ZM112.98,134.36c.1,1-.7,1.8-.7,2.7.1.8.2,1.6.2,2.4-.8-.7-.4-2-1.2-2.8s-1.9-1.5-3.1-1.8c.2,1.1-.2,2.3.5,3.3.4.6.7,1.3,1.1,1.8v.8h-.4c-.5-.6-1.1-1.3-1.6-1.9-1-.5-2.2,0-3.1.3.5.5,1,1.1,1.4,1.7,1,1.6,2.1,3.3,2,5.3,0,1.3-.8,2.4-1.7,3.1.5.7,1.4.7,2.1.7.4,0,.8.1,1.1-.2.5-.6.8-1.3,1.3-1.8h.3c1.4,1.7,2.7,3.5,4.1,5.1,1.2-1,2-2.5,2.9-3.8.2-.3.4-.5.5-.9-.6-2.5-3.5-3.6-4.1-6.2-.4-2.1.6-4.3,0-6.4-.4-.4-.9-1.1-1.6-1.4ZM127.68,168.06c-1.3.5-2.1,1.7-3,2.7-1,1.2-2.4,2.2-4,2.1.1.9.4,1.8,1,2.5.4.5,1.1.7,1.7.9.1.3.1.7.1,1.1.1,2.5,1.1,5,2.9,6.9.1.2.6.5.3.8-1.2.2-2.3.1-3.5.1-.9,0-1.9,0-2.7-.4-1.5-.8-2.2-2.4-3.4-3.4-.9-.7-2-1.1-3.2-.9.2.3.4.6.6,1,.1.5-.2,1-.3,1.4.7.2,1.4.4,2.1.6v.6c-1.1-.2-2.3-.4-3.3.2-.7.3-1.1,1-1.3,1.7.4,0,.8,0,1.2.1.3.6.6,1.2.7,1.9.7-.8,1.4-1.6,2.2-2.3,0,.9-.5,1.7-1,2.4-.7.9-1.4,2-1.3,3.3.5-.1.9-.5,1.3-.7.3.4.7.8,1.1,1.2.6-.8.6-1.7.9-2.6h.4c-.1,1-.5,1.9-.6,2.9-.2,1-.2,2.2.7,2.9.2-.5.3-.9.4-1.4.4-.1.9,0,1.3.1,1,.3,1.9-.5,2.4-1.3.5-.7,1.2-1.3,2.2-1.4.3.3.6.6.7,1,.1.4.1.8.2,1.2,1-.4,1.5-1.3,2.3-1.9,1.4-.8,3.1-.8,4.7-.8,1.5-.1,2.7-1.1,3.5-2.2-1.6-1.5-2.9-3.3-4-5.2-.7-1.4-1.3-3-1.1-4.7.2-.7.4-1.5,1.2-1.8.9-.5,1.8.1,2.5.6.1-1,.2-2,.2-2.9-.6-1-1.8-1.5-2.3-2.6-.3-.6,0-1.3-.2-1.9-.1.6,0,1.1-.1,1.7-.1-.6,0-1.2.1-1.9-.9-1-2.2-1.9-3.6-1.6Z"/>
  <path class="cls-1" d="M59.28,118.06h5.9v5.2h4.5c.1-.2.1-.4.1-.6v-4.3h5.6v12.6h-26.8v-12.6h5.6v3.2c0,.6-.1,1.2.1,1.7,1.6-.1,3.1,0,4.7,0,.4-1.7.1-3.4.3-5.2ZM130.68,117.36c.7-1,2-1.5,3.2-1.5-.3,1-.6,2-.4,3.1,0,.8.4,1.4.4,2.2-1.1-.1-2.2-.5-2.9-1.3-.7-.7-.8-1.8-.3-2.5ZM135.48,115.86c1.1-.1,2.3.4,3.1,1.3.5.6.6,1.4.4,2.1-.7,1.3-2.2,1.8-3.6,1.9.9-1.6.9-3.7.1-5.3ZM126.78,118.26c.3-.9,1.3-1.3,2.1-1.4-.2.6-.6,1.1-.5,1.8.1.8.7,1.5,1.4,1.9v.5c-.9-.1-1.9-.2-2.6-.9-.5-.4-.5-1.2-.4-1.9ZM140.58,116.96c.8.1,1.8.5,2.1,1.4.2.7.1,1.5-.5,2-.9.8-2.1.8-3.2.7.8-.5,1.7-.9,2-1.8.3-.8-.1-1.6-.4-2.3ZM132.28,125.86c1.2,0,2.4-.1,3.6.1.2.1.5,0,.5.3-1,.5-2,.8-3,1.2-.3.1-.7.2-1,.3-.1-.6-.1-1.2-.1-1.9ZM53.08,133.16h17.9c.3,1.5.4,3,.6,4.5,1.7,14,3.5,28,5.2,41.9.1,1.2.4,2.3.4,3.5h-30.4c.2-2.3.6-4.6.8-6.9,1.8-14.2,3.5-28.5,5.3-42.7.1-.1.2-.2.2-.3ZM57.78,147.66c-.1,1-.2,2,.1,2.9h8.3c.2-1,.1-2,.1-3-.1,0-.2-.1-.2-.2h-8.2c0,.2-.1.3-.1.3ZM57.88,157.46v3h8.4c.1-1,0-2,.1-3-.2-.1-.5-.2-.8-.2h-6.9c-.3,0-.6.1-.8.2ZM57.68,167.26c.1,1-.1,2,.2,3h8.3c.3-1,.1-2,.2-3-.2-.1-.5-.2-.8-.2h-6.9c-.3.1-.7.2-1,.2ZM43.38,185.36h37.3v12.6h-9.9c-.1-1.1.1-2.2-.2-3.3h-17.1v3.3h-10.1c0-4.1,0-8.3,0-12.6Z"/>
  <path class="cls-2" d="M229.48,61.76h59.6c11.9-.1,23.8.4,35.6,2.4,8.8,1.6,17.6,4,25.2,8.7,3.7,2.2,7,5,9.7,8.4,2.4,3,4.3,6.4,5.5,10,1.6,4.8,2.2,9.8,2.2,14.8-.1,4.2-.7,8.4-2.1,12.3-1.5,4.3-4.1,8.3-7.3,11.5-5.7,5.7-13.1,9.2-20.7,11.6-1.8.6-3.7,1-5.5,1.6,8.5,1.6,17.1,4.2,24.4,8.9,3.5,2.3,6.7,5.2,9.2,8.6,2.3,3.1,4,6.6,5.1,10.2,1.4,4.6,1.9,9.5,1.8,14.4-.1,5.3-.9,10.7-2.7,15.8-2.4,6.8-7,12.7-12.8,16.9-6.7,4.9-14.8,7.8-22.9,9.5-6.3,1.3-12.7,2-19.1,2.3-4.7.3-9.5.2-14.2.2h-38.3c-11,0-21.9.1-32.9,0,.2-56,.2-112.1.2-168.1ZM274.68,92.26v37.6h10.3c6-.1,12,.3,17.9-.6,4.4-.7,8.9-1.8,12.5-4.5,3.1-2.2,5.2-5.8,5.9-9.5.8-4.3.5-8.9-1.6-12.8-1.9-3.4-5.2-5.8-8.7-7.3-5.1-2.1-10.6-2.7-16-2.9-6.9,0-13.6,0-20.3,0ZM274.68,158.96v40.4h16.7c6.2,0,12.4-.2,18.3-1.8,4-1,8.1-2.8,10.9-6s3.9-7.4,4.1-11.6c.2-4-.5-8.2-2.9-11.6-2.3-3.4-5.9-5.5-9.7-6.8-6.1-2.1-12.5-2.5-18.9-2.6h-18.5ZM394.38,61.76h73.1c7.9-.1,15.8.2,23.6,1.4,6.6,1,13,2.7,19.1,5.4,5.5,2.4,10.6,5.7,14.9,9.9,4,3.9,7.2,8.7,9.4,13.9,2,4.8,3.2,9.8,3.8,14.9.7,6.5.6,13-.4,19.4-.8,4.8-2.1,9.4-4.2,13.8-4.3,9.2-11.8,16.7-20.6,21.5-4.8,2.6-10.1,4.5-15.4,5.8-7.2,1.8-14.6,2.4-22,2.5h-34.1v57.7c0,.7-.1,1.3-.1,2h-46.9c-.1-9.7,0-19.3,0-29-.2-46.4-.3-92.8-.2-139.2ZM441.28,93.16v44h19.5c4.1.1,8.3-.1,12.3-.9,3.4-.7,6.7-1.7,9.6-3.6,2.2-1.4,4.1-3.3,5.4-5.5,1.8-2.9,2.6-6.2,2.9-9.6.3-4,.1-8.1-1.4-11.9-1.3-3.4-3.7-6.3-6.8-8.2-3-1.8-6.4-2.8-9.8-3.4-4.4-.8-8.9-.9-13.4-.8-6.1-.1-12.2-.1-18.3-.1ZM558.78,61.76c15.6-.1,31.2,0,46.7,0v168.2c-15.6.1-31.2,0-46.7,0,0-56.1.1-112.2,0-168.2Z"/>
</svg>